<?xml version="1.0" encoding="UTF-8"?><svg id="OBJECTS" xmlns="http://www.w3.org/2000/svg" viewBox="0 0 315.62 106.47"><defs><style>.cls-1{fill:#85f1f9;}.cls-2{fill:#b267f7;}.cls-3{fill:#353c56;}</style></defs><path class="cls-1" d="M11.15,83.07v-30.89c0-10.77,8.73-19.5,19.5-19.5h0c10.77,0,19.5,8.73,19.5,19.5v30.89c0,10.77-8.73,19.5-19.5,19.5h0c-10.77,0-19.5-8.73-19.5-19.5Z"/><path class="cls-2" d="M52.24,53.4V22.51c0-10.77,8.73-19.5,19.5-19.5h0c10.77,0,19.5,8.73,19.5,19.5v30.89c0,10.77-8.73,19.5-19.5,19.5h0c-10.77,0-19.5-8.73-19.5-19.5Z"/><g><path class="cls-3" d="M95.64,45.3c-.21-1.53-1.76-4.73-1.78-4.68-4.12-7.55-12.13-12.69-21.32-12.69s-17.2,5.13-21.32,12.68c-4.12-7.55-12.13-12.68-21.32-12.68-13.39,0-24.28,10.89-24.28,24.28s10.89,24.28,24.28,24.28c1.66,0,3.01-1.35,3.01-3.01s-1.35-3.01-3.01-3.01c-10.07,0-18.26-8.19-18.26-18.26s8.19-18.26,18.26-18.26,18.26,8.19,18.26,18.26c0,.29,.06,.57,.13,.84,.45,13,11.15,23.43,24.25,23.43,1.66,0,3.01-1.35,3.01-3.01s-1.35-3.01-3.01-3.01c-10.07,0-18.26-8.19-18.26-18.26s8.19-18.26,18.26-18.26,18.26,8.19,18.26,18.26c0,.18,4.97-5.97,4.84-6.91Z"/><path class="cls-3" d="M37.26,56.3h-5.3v5.3c0,1.66-1.35,3.01-3.01,3.01-.83,0-1.58-.34-2.13-.88s-.88-1.3-.88-2.13v-5.3h-5.3c-.83,0-1.58-.34-2.13-.88s-.88-1.3-.88-2.13c0-1.66,1.35-3.01,3.01-3.01h5.3v-5.3c0-1.66,1.35-3.01,3.01-3.01,1.66,0,3.01,1.35,3.01,3.01v5.3h5.3c1.66,0,3.01,1.35,3.01,3.01,0,1.66-1.35,3.01-3.01,3.01Z"/><path class="cls-3" d="M61.31,47.99l8.1,14.03c.43,.74,1.22,1.2,2.08,1.2s1.65-.46,2.08-1.2l8.19-14.18c.11-.19,.2-.39,.26-.61,.05-.21,.08-.41,.08-.61,0-.08,0-.15-.01-.23-.03-.35-.14-.65-.31-.94-.17-.29-.4-.49-.68-.7-.23-.17-.49-.19-.78-.26-.22-.06-17.11-.08-17.14-.08-1.29,.05-2.32,.89-2.32,2.19,0,.52,.16,1,.44,1.39Zm14.22,.62l-4.04,6.99-4.04-6.99h8.08Z"/><path class="cls-3" d="M35.29,70.69c.13-1.71,1.63-2.98,3.33-2.85,1.71,.13,2.98,1.63,2.85,3.33-.13,1.71-1.63,2.98-3.33,2.85-1.71-.13-2.98-1.63-2.85-3.33Z"/></g><g><path class="cls-2" d="M170.29,54.46c.6,.62,.9,1.38,.9,2.29v11.18c0,1.23-.55,2.18-1.63,2.85-3.45,2.14-7.23,3.22-11.34,3.22-3.48,0-6.7-.85-9.65-2.56-2.95-1.7-5.29-4.01-7.01-6.91-1.72-2.9-2.58-6.07-2.58-9.52s.86-6.62,2.58-9.52c1.72-2.9,4.06-5.2,7.01-6.91,2.95-1.71,6.17-2.56,9.65-2.56s6.5,.7,9.07,2.11c.53,.28,.92,.65,1.19,1.11,.26,.46,.4,.95,.4,1.48,0,.88-.29,1.64-.87,2.29-.58,.65-1.29,.98-2.14,.98-.53,0-1.11-.14-1.74-.42-1.9-.81-3.87-1.21-5.91-1.21-2.25,0-4.32,.57-6.22,1.71-1.9,1.14-3.4,2.68-4.51,4.61-1.11,1.93-1.66,4.04-1.66,6.33s.55,4.4,1.66,6.33c1.11,1.93,2.61,3.47,4.51,4.61,1.9,1.14,3.97,1.71,6.22,1.71,.98,0,2.04-.09,3.16-.26,1.13-.18,2.11-.4,2.95-.69v-6.86h-4.96c-.91,0-1.68-.3-2.29-.9-.62-.6-.92-1.35-.92-2.27s.31-1.67,.92-2.27c.61-.6,1.38-.9,2.29-.9h8.65c.91,0,1.67,.31,2.27,.92Z"/><path class="cls-2" d="M206.74,70.62c0,.91-.3,1.66-.9,2.24-.6,.58-1.28,.87-2.06,.87-.63,0-1.2-.19-1.71-.58-.51-.39-.91-.91-1.19-1.58l-2.74-6.38h-15.72l-2.74,6.43c-.25,.67-.63,1.19-1.13,1.56-.51,.37-1.06,.55-1.66,.55-.91,0-1.61-.25-2.08-.74-.47-.49-.71-1.16-.71-2,0-.32,.05-.65,.16-1l13.13-31.54c.28-.7,.7-1.25,1.27-1.64,.56-.39,1.19-.54,1.9-.47,.63,0,1.22,.18,1.77,.55,.54,.37,.94,.89,1.19,1.56l12.97,30.91c.17,.46,.26,.88,.26,1.27Zm-21.73-11.5h10.55l-5.33-12.34-5.22,12.34Z"/><path class="cls-2" d="M136.59,70.62c0,.91-.3,1.66-.9,2.24-.6,.58-1.28,.87-2.06,.87-.63,0-1.2-.19-1.71-.58-.51-.39-.91-.91-1.19-1.58l-2.74-6.38h-15.72l-2.74,6.43c-.25,.67-.63,1.19-1.13,1.56-.51,.37-1.06,.55-1.66,.55-.91,0-1.61-.25-2.08-.74-.47-.49-.71-1.16-.71-2,0-.32,.05-.65,.16-1l13.13-31.54c.28-.7,.7-1.25,1.27-1.64,.56-.39,1.19-.54,1.9-.47,.63,0,1.22,.18,1.77,.55,.54,.37,.94,.89,1.19,1.56l12.97,30.91c.17,.46,.26,.88,.26,1.27Zm-21.73-11.5h10.55l-5.33-12.34-5.22,12.34Z"/><path class="cls-2" d="M245.53,37.42c.65,.62,.98,1.38,.98,2.29v30.54c0,.92-.3,1.68-.9,2.29-.6,.62-1.39,.92-2.37,.92s-1.78-.3-2.4-.9c-.62-.6-.92-1.37-.92-2.32v-21.25l-8.7,13.29c-.35,.42-.76,.76-1.21,1.03s-.93,.38-1.42,.34c-.46,.04-.92-.08-1.37-.34-.46-.26-.86-.61-1.21-1.03l-8.7-13.77v21.73c0,.95-.28,1.72-.84,2.32-.56,.6-1.3,.9-2.22,.9s-1.6-.31-2.16-.92c-.56-.61-.84-1.38-.84-2.29v-30.54c0-.88,.32-1.63,.98-2.27,.65-.63,1.43-.95,2.35-.95,.53,0,1.05,.13,1.58,.4,.53,.26,.93,.61,1.21,1.03l11.5,17.67,11.81-17.67c.28-.42,.66-.76,1.13-1.03,.47-.26,.96-.4,1.45-.4,.88,0,1.64,.31,2.29,.92Z"/><path class="cls-2" d="M277.6,68.33c.62,.62,.92,1.33,.92,2.14,0,.88-.31,1.6-.92,2.16s-1.38,.84-2.29,.84h-17.67c-.92,0-1.68-.31-2.29-.92-.62-.61-.92-1.38-.92-2.29v-30.48c0-.91,.31-1.68,.92-2.29,.61-.61,1.38-.92,2.29-.92h17.67c.91,0,1.68,.29,2.29,.87,.62,.58,.92,1.33,.92,2.24s-.3,1.59-.9,2.14c-.6,.55-1.37,.82-2.32,.82h-14.29v8.97h11.92c.91,0,1.68,.29,2.29,.87,.62,.58,.92,1.33,.92,2.24s-.3,1.59-.9,2.14c-.6,.55-1.37,.82-2.32,.82h-11.92v9.76h14.29c.91,0,1.68,.31,2.29,.92Z"/><path class="cls-2" d="M289.7,73.05c-1.97-.63-3.82-1.71-5.54-3.22-.95-.84-1.42-1.78-1.42-2.8,0-.81,.3-1.52,.9-2.14,.6-.61,1.32-.92,2.16-.92,.67,0,1.27,.21,1.79,.63,1.41,1.16,2.78,2,4.11,2.53,1.34,.53,2.92,.79,4.75,.79,1.97,0,3.67-.44,5.09-1.32,1.42-.88,2.14-1.97,2.14-3.27,0-1.58-.7-2.82-2.11-3.72-1.41-.9-3.64-1.57-6.7-2.03-7.7-1.13-11.55-4.71-11.55-10.76,0-2.21,.58-4.14,1.74-5.78,1.16-1.63,2.74-2.88,4.75-3.74,2-.86,4.24-1.29,6.7-1.29,2.21,0,4.3,.33,6.25,1,1.95,.67,3.58,1.55,4.88,2.64,1.02,.81,1.53,1.74,1.53,2.8,0,.81-.3,1.52-.9,2.14-.6,.62-1.3,.92-2.11,.92-.53,0-1-.16-1.42-.47-.91-.74-2.19-1.42-3.82-2.03-1.64-.61-3.1-.92-4.4-.92-2.22,0-3.93,.41-5.14,1.24-1.21,.83-1.82,1.91-1.82,3.24,0,1.51,.62,2.66,1.87,3.43,1.25,.77,3.21,1.41,5.88,1.9,3.02,.53,5.44,1.2,7.25,2.03,1.81,.83,3.17,1.95,4.09,3.38,.91,1.42,1.37,3.31,1.37,5.67,0,2.21-.63,4.16-1.87,5.83-1.25,1.67-2.91,2.95-4.98,3.85-2.08,.9-4.31,1.35-6.7,1.35-2.53,0-4.78-.32-6.75-.95Z"/></g></svg>