<svg id="svg" viewBox="0 0 800 800"  xmlns="http://www.w3.org/2000/svg">
<path d="M186.215 257.369H25.6142C18.4864 257.369 12.7109 263.147 12.7109 270.272V786.216C12.7109 793.343 18.4864 799.119 25.6142 799.119H186.215C193.343 799.119 199.119 793.343 199.119 786.216V270.272C199.119 263.147 193.343 257.369 186.215 257.369Z" />
<path d="M105.977 0.880859C47.5407 0.880859 0 48.3699 0 106.742C0 165.139 47.5407 212.646 105.977 212.646C164.366 212.646 211.868 165.136 211.868 106.742C211.871 48.3699 164.366 0.880859 105.977 0.880859Z" />
<path d="M594.717 244.545C530.214 244.545 482.532 272.274 453.61 303.781V270.271C453.61 263.146 447.835 257.368 440.707 257.368H286.903C279.775 257.368 274 263.146 274 270.271V786.215C274 793.342 279.775 799.118 286.903 799.118H447.154C454.281 799.118 460.057 793.342 460.057 786.215V530.942C460.057 444.922 483.422 411.409 543.386 411.409C608.692 411.409 613.881 465.133 613.881 535.368V786.217C613.881 793.345 619.657 799.12 626.785 799.12H787.094C794.222 799.12 799.997 793.345 799.997 786.217V503.213C799.997 375.304 775.608 244.545 594.717 244.545Z" />
</svg>
