<?xml version="1.0" encoding="utf-8"?>
<!-- Generator: Adobe Illustrator 16.0.0, SVG Export Plug-In . SVG Version: 6.00 Build 0)  -->
<!DOCTYPE svg PUBLIC "-//W3C//DTD SVG 1.1//EN" "http://www.w3.org/Graphics/SVG/1.1/DTD/svg11.dtd">
<svg version="1.1" id="Calque_1" xmlns="http://www.w3.org/2000/svg" xmlns:xlink="http://www.w3.org/1999/xlink" x="0px" y="0px"
	 width="722.836px" height="113.387px" viewBox="0 0 722.836 113.387" enable-background="new 0 0 722.836 113.387"
	 xml:space="preserve">
<g>
	<path fill="#7030a0" d="M5.255,89.354c0-3.693,1.93-5.782,4.499-5.782c2.089,0,4.179,1.929,4.179,4.337
		c0,2.089-1.446,4.178-3.695,4.981c2.729,6.908,12.853,13.495,26.99,13.495c17.191,0,27.957-9.963,27.957-23.938
		c0-14.623-13.657-20.889-27.476-26.511C23.571,50.312,9.112,43.727,9.112,27.339c0-15.104,13.013-26.025,29.721-26.025
		c16.068,0,28.601,10.122,28.601,19.28c0,3.213-1.93,5.302-4.338,5.302c-2.089,0-4.18-1.77-4.18-4.179
		c0-2.252,1.126-3.855,3.215-4.979c-2.569-6.59-12.692-11.891-23.458-11.891c-14.78,0-25.706,9.642-25.706,22.173
		c0,14.62,13.657,20.081,27.476,25.706C54.58,58.347,69.2,65.737,69.2,82.124c0,16.712-13.496,27.795-32.293,27.795
		C17.626,109.919,5.255,98.513,5.255,89.354z"/>
	<path fill="#7030a0" d="M85.577,104.941h15.906V6.293H85.577V2.757h36.312v3.536H105.82v98.648h16.067v3.533H85.577V104.941z"/>
	<path fill="#7030a0" d="M138.43,56.902c0-33.9,24.902-55.59,53.181-55.75c23.136,0,39.041,13.495,39.041,23.777
		c0,3.373-2.088,5.302-4.659,5.302c-2.57,0-4.177-1.77-4.177-4.337c0-2.089,0.964-4.019,3.373-5.143
		c-3.213-7.554-16.066-15.906-33.738-15.906c-29.724,0-48.842,23.616-48.842,52.057c0,29.883,20.563,49.644,46.913,49.644
		c13.014,0,26.025-4.337,38.398-14.299V64.612h-34.062v-3.533h38.077v47.396h-4.017V96.424
		c-11.891,9.158-23.618,13.658-38.561,13.658C162.209,110.082,138.43,89.998,138.43,56.902z"/>
	<path fill="#7030a0" d="M250.403,104.941h16.228l3.533-98.648H254.58V2.757h20.565l37.595,84.028l37.596-84.028h20.083v3.536
		h-15.584l3.534,98.648h16.229v3.533h-34.223v-3.533h14.141L351.14,9.986l-37.757,84.028h-1.606L274.021,9.666l-3.534,95.275h14.139
		v3.533h-34.222L250.403,104.941L250.403,104.941z"/>
	<path fill="#7030a0" d="M380.527,104.941h12.533l36.791-98.648h-14.46V2.757h37.438v3.536h-14.303l36.633,98.648h12.694v3.533
		h-32.296v-3.533h15.104l-13.498-36.793h-46.107l-13.657,36.793h15.426v3.533h-32.296L380.527,104.941L380.527,104.941z
		 M455.883,64.612L434.192,5.81l-21.854,58.803L455.883,64.612L455.883,64.612z"/>
	<path fill="#7030a0" d="M544.712,72.005V6.293h-15.265V2.757h35.025v3.536h-15.584v65.39c0,22.652,10.604,34.863,31.011,34.863
		c20.401,0,31.008-11.887,31.008-34.863V6.293h-15.744V2.757h35.024v3.536h-15.264v65.712c0,24.26-12.374,38.077-35.188,38.077
		C557.087,110.082,544.712,96.264,544.712,72.005z"/>
	<path fill="#7030a0" d="M641.905,104.941h15.26V6.293h-15.26V2.757h38.397c22.013,0,37.275,13.335,37.275,31.812
		c0,19.762-14.14,32.296-37.115,32.296c-6.587,0-15.422-0.164-19.117-0.324v38.401h15.584v3.533h-35.024V104.941L641.905,104.941z
		 M713.402,34.729c0-16.226-12.854-28.437-32.938-28.437h-19.117v56.714c4.017,0.16,12.531,0.32,19.117,0.32
		C702.152,63.327,713.402,51.761,713.402,34.729z"/>
</g>
<g>
	<path fill="#ffd21c" stroke="#FFFFFF" stroke-miterlimit="10" d="M490.505,71.534l16.588-16.384l-15.854-15.604v-4.987h29.704
		v4.987h-22.595l15.895,15.604l-16.591,16.384h24.065v4.984h-31.214L490.505,71.534L490.505,71.534z"/>
</g>
</svg>
