<svg width="271" height="34" viewBox="0 0 271 34" fill="none" xmlns="http://www.w3.org/2000/svg">
<mask id="mask0_3751_43712" style="mask-type:luminance" maskUnits="userSpaceOnUse" x="217" y="15" width="5" height="5">
<path d="M217.766 15.5156H221.266V19.0208H217.766V15.5156Z" fill="white"/>
</mask>
<g mask="url(#mask0_3751_43712)">
<path d="M221.266 17.2656C221.266 18.2344 220.484 19.0208 219.516 19.0208C218.974 19.0208 218.49 18.7708 218.172 18.3854C217.932 18.099 217.781 17.7292 217.766 17.3333C217.766 17.3125 217.766 17.2865 217.766 17.2656C217.766 16.3021 218.552 15.5156 219.516 15.5156C219.714 15.5156 219.906 15.5521 220.083 15.6094C220.453 15.7396 220.766 15.9844 220.979 16.3021C221.161 16.5781 221.266 16.9115 221.266 17.2656Z" fill="#C21010"/>
</g>
<path d="M0.0703125 29.7891H36.2578" stroke="#98988B" stroke-width="0.581843"/>
<path d="M235.141 30.0234H270.75" stroke="#98988B" stroke-width="0.583675"/>
<path d="M98.5911 11.8984H89.112C89.1224 13.5391 89.5078 14.7839 90.2578 15.6276C91.0078 16.4609 92.0911 16.8776 93.5078 16.8776C95.0078 16.8776 96.388 16.3724 97.6536 15.3568L98.362 16.8776C97.7891 17.4089 97.0599 17.8307 96.1745 18.1484C95.2995 18.4505 94.4036 18.6068 93.487 18.6068C91.4557 18.6068 89.8672 18.013 88.7161 16.8151C87.5755 15.6224 87.0078 13.9922 87.0078 11.9193C87.0078 10.6016 87.263 9.4349 87.7786 8.41927C88.2891 7.40885 89.0078 6.6224 89.9245 6.0651C90.8516 5.4974 91.9089 5.21094 93.0911 5.21094C94.7995 5.21094 96.138 5.77344 97.112 6.89844C98.0964 8.01302 98.5911 9.55469 98.5911 11.5234V11.8984ZM93.112 6.8151C92.0391 6.8151 91.1641 7.14323 90.487 7.79427C89.8047 8.45052 89.3724 9.36719 89.1953 10.5443H96.7161C96.6016 9.32552 96.2422 8.39844 95.6328 7.77344C95.0339 7.13802 94.1953 6.8151 93.112 6.8151Z" fill="#A9B65F"/>
<path d="M104.497 7.14844V14.2109C104.497 15.1693 104.69 15.8464 105.081 16.2318C105.482 16.6068 106.044 16.7943 106.768 16.7943C107.237 16.7943 107.695 16.7214 108.143 16.5651V18.3359C107.612 18.513 107.018 18.6068 106.352 18.6068C105.112 18.6068 104.148 18.263 103.456 17.5651C102.758 16.8724 102.414 15.8516 102.414 14.5026V7.14844H99.9141V5.5026H102.414V2.1901L104.497 1.46094V5.5026H108.206V7.14844H104.497Z" fill="#A9B65F"/>
<path d="M6.75 18.9349C3.91667 18.9349 1.66667 18.1745 0 16.6432L0.770833 15.0391C1.67187 15.8047 2.58854 16.3464 3.52083 16.6641C4.44792 16.987 5.54167 17.1432 6.79167 17.1432C8.25 17.1432 9.36458 16.862 10.1458 16.2891C10.9375 15.7214 11.3333 14.9245 11.3333 13.8932C11.3333 13.2839 11.1354 12.7891 10.75 12.4141C10.375 12.0286 9.875 11.7214 9.25 11.4974C8.63542 11.2786 7.81771 11.0495 6.79167 10.8099C5.38542 10.5078 4.23437 10.1797 3.33333 9.83073C2.44271 9.47135 1.71354 8.95573 1.14583 8.28906C0.588541 7.6224 0.3125 6.74219 0.3125 5.64323C0.3125 4.61719 0.583333 3.70573 1.125 2.91406C1.67708 2.1224 2.44792 1.51302 3.4375 1.08073C4.42187 0.638021 5.58333 0.414062 6.91667 0.414062C8.16667 0.414062 9.33333 0.611978 10.4167 0.997396C11.5 1.38802 12.4167 1.95573 13.1667 2.70573L12.3542 4.3099C11.5052 3.57552 10.6458 3.03906 9.77083 2.70573C8.89583 2.36198 7.94271 2.1849 6.91667 2.1849C5.5 2.1849 4.39583 2.49219 3.60417 3.10156C2.8125 3.70052 2.41667 4.52865 2.41667 5.58073C2.41667 6.4974 2.76042 7.1849 3.45833 7.64323C4.15104 8.10156 5.21875 8.4974 6.66667 8.83073C8.21875 9.20573 9.44271 9.55469 10.3333 9.8724C11.2188 10.1797 11.9635 10.6536 12.5625 11.2891C13.1562 11.9297 13.4583 12.7682 13.4583 13.8099C13.4583 14.8411 13.1771 15.7422 12.625 16.5182C12.0833 17.2839 11.3021 17.8828 10.2917 18.3099C9.29167 18.7266 8.10937 18.9349 6.75 18.9349Z" fill="#98988B"/>
<path d="M19.3385 7.5599V14.5599C19.3385 15.5078 19.5313 16.1745 19.9219 16.5599C20.3073 16.9349 20.8646 17.1224 21.5885 17.1224C22.0573 17.1224 22.5104 17.0495 22.9427 16.8932V18.6432C22.4271 18.8203 21.8385 18.9141 21.1719 18.9141C19.9479 18.9141 18.9896 18.5755 18.2969 17.8932C17.6146 17.2005 17.276 16.1797 17.276 14.8307V7.5599H14.7969V5.9349H17.276V2.64323L19.3385 1.91406V5.9349H23.0052V7.5599H19.3385Z" fill="#98988B"/>
<path d="M30.776 18.9167C29.5781 18.9167 28.526 18.6458 27.6094 18.1042C26.6927 17.5521 25.9844 16.7708 25.4844 15.7708C24.9844 14.7708 24.7344 13.6042 24.7344 12.2708C24.7344 10.9271 24.9844 9.75 25.4844 8.75C25.9844 7.75 26.6927 6.97917 27.6094 6.4375C28.526 5.89583 29.5781 5.625 30.776 5.625C31.9844 5.625 33.0469 5.89583 33.9635 6.4375C34.8802 6.97917 35.5885 7.75 36.0885 8.75C36.5885 9.75 36.8385 10.9271 36.8385 12.2708C36.8385 13.6042 36.5885 14.7708 36.0885 15.7708C35.5885 16.7708 34.8802 17.5521 33.9635 18.1042C33.0469 18.6458 31.9844 18.9167 30.776 18.9167ZM30.776 17.2083C32.0521 17.2083 33.026 16.7917 33.6927 15.9583C34.3698 15.1146 34.7135 13.8854 34.7135 12.2708C34.7135 10.7188 34.3646 9.51042 33.6719 8.64583C32.974 7.78646 32.0104 7.35417 30.776 7.35417C29.526 7.35417 28.5521 7.78646 27.8594 8.64583C27.1615 9.51042 26.8177 10.7188 26.8177 12.2708C26.8177 13.8854 27.1562 15.1146 27.8385 15.9583C28.5312 16.7917 29.5104 17.2083 30.776 17.2083Z" fill="#98988B"/>
<path d="M45.987 5.625C46.4036 5.625 46.7891 5.68229 47.1536 5.79167L47.112 7.66667C46.7214 7.53125 46.2682 7.45833 45.7578 7.45833C44.5182 7.45833 43.5964 7.84896 42.987 8.625C42.388 9.39063 42.0911 10.3281 42.0911 11.4375V18.7292H40.0286V9.52083C40.0286 8.20313 39.9557 7.01042 39.8203 5.9375H41.7786L41.987 8.29167C42.3047 7.43229 42.8203 6.77083 43.5286 6.3125C44.2474 5.85417 45.0703 5.625 45.987 5.625Z" fill="#98988B"/>
<path d="M59.9427 12.2708H50.5677C50.5781 13.8958 50.9531 15.125 51.6927 15.9583C52.4271 16.7917 53.5052 17.2083 54.9219 17.2083C56.4062 17.2083 57.776 16.7083 59.026 15.7083L59.7135 17.2083C59.1563 17.7396 58.4427 18.1562 57.5677 18.4583C56.6927 18.7604 55.7969 18.9167 54.8802 18.9167C52.8802 18.9167 51.3073 18.3281 50.1719 17.1458C49.0469 15.9688 48.4844 14.349 48.4844 12.2917C48.4844 10.9896 48.7344 9.83333 49.2344 8.83333C49.7448 7.82292 50.4635 7.03646 51.3802 6.47917C52.2969 5.91146 53.3385 5.625 54.5052 5.625C56.1979 5.625 57.526 6.18229 58.4844 7.29167C59.4531 8.40625 59.9427 9.9375 59.9427 11.8958V12.2708ZM54.526 7.22917C53.4531 7.22917 52.5885 7.55729 51.9219 8.20833C51.2552 8.84896 50.8229 9.75 50.6302 10.9167H58.0885C57.9896 9.70833 57.6354 8.79167 57.026 8.16667C56.4271 7.54167 55.5937 7.22917 54.526 7.22917Z" fill="#98988B"/>
<path d="M67.3984 18.9167C65.2422 18.9167 63.5339 18.3646 62.2734 17.25L62.9609 15.7292C63.6536 16.2708 64.3568 16.6615 65.0651 16.8958C65.7839 17.1354 66.5859 17.25 67.4609 17.25C68.4297 17.25 69.1693 17.0938 69.6693 16.7708C70.1693 16.4375 70.4193 15.9531 70.4193 15.3125C70.4193 14.8125 70.2422 14.4115 69.8984 14.1042C69.5651 13.8021 69.0078 13.5625 68.2318 13.3958L66.0651 12.875C64.9922 12.6406 64.1693 12.2188 63.5859 11.6042C63.0026 10.9948 62.7109 10.2656 62.7109 9.41667C62.7109 8.30729 63.1589 7.39583 64.0651 6.6875C64.9661 5.97917 66.1536 5.625 67.6276 5.625C68.5286 5.625 69.3776 5.77083 70.1693 6.0625C70.9609 6.35417 71.6276 6.77083 72.1693 7.3125L71.4818 8.8125C70.2839 7.8125 69.0026 7.3125 67.6276 7.3125C66.7109 7.3125 66.0026 7.48958 65.5026 7.83333C65.0026 8.18229 64.7526 8.66667 64.7526 9.29167C64.7526 9.82292 64.9036 10.2396 65.2109 10.5417C65.5286 10.849 66.0339 11.0833 66.7318 11.25L68.8984 11.7917C70.0755 12.0573 70.9505 12.474 71.5234 13.0417C72.1068 13.6146 72.3984 14.3542 72.3984 15.2708C72.3984 16.3698 71.9453 17.25 71.0443 17.9167C70.1536 18.5833 68.9401 18.9167 67.3984 18.9167Z" fill="#98988B"/>
<path d="M75.5547 12.7474V11.0391H82.763V12.7474H75.5547Z" fill="#98988B"/>
<path d="M110.391 12.7474V11.0391H117.599V12.7474H110.391Z" fill="#98988B"/>
<path d="M135.901 18.7292H133.693L131.443 12.7083C131.177 11.9583 130.802 11.4583 130.318 11.2083C129.828 10.9479 129.151 10.8125 128.276 10.8125H123.734V18.7292H121.672V0.625H128.88C130.823 0.625 132.318 1.05729 133.359 1.91667C134.411 2.78125 134.943 4.02083 134.943 5.64583C134.943 6.84375 134.63 7.84375 134.005 8.64583C133.38 9.45313 132.484 10.0208 131.318 10.3542C131.844 10.4375 132.297 10.6667 132.672 11.0417C133.047 11.4062 133.359 11.9271 133.609 12.6042L135.901 18.7292ZM128.693 9.08333C131.484 9.08333 132.88 7.95313 132.88 5.6875C132.88 4.5625 132.536 3.72917 131.859 3.1875C131.177 2.63542 130.12 2.35417 128.693 2.35417H123.734V9.08333H128.693Z" fill="#98988B"/>
<path d="M139.044 18.7318V5.9401H141.107V18.7318H139.044ZM138.836 0.523438H141.357V2.8776H138.836V0.523438Z" fill="#98988B"/>
<path d="M156.365 0V18.7292H154.323V16.4167C153.958 17.2083 153.396 17.8281 152.635 18.2708C151.885 18.7031 151.01 18.9167 150.01 18.9167C148.885 18.9167 147.891 18.6406 147.031 18.0833C146.182 17.5156 145.521 16.7292 145.052 15.7292C144.578 14.7188 144.344 13.5417 144.344 12.2083C144.344 10.8906 144.573 9.73958 145.031 8.75C145.5 7.75 146.167 6.97917 147.031 6.4375C147.891 5.89583 148.885 5.625 150.01 5.625C151.01 5.625 151.875 5.84375 152.615 6.27083C153.365 6.70313 153.927 7.3125 154.302 8.10417V0H156.365ZM150.406 17.2083C151.667 17.2083 152.635 16.7812 153.302 15.9167C153.979 15.0573 154.323 13.8438 154.323 12.2708C154.323 10.7188 153.979 9.51042 153.302 8.64583C152.635 7.78646 151.667 7.35417 150.406 7.35417C149.156 7.35417 148.177 7.78125 147.469 8.625C146.771 9.47396 146.427 10.6667 146.427 12.2083C146.427 13.7917 146.771 15.0208 147.469 15.8958C148.177 16.7708 149.156 17.2083 150.406 17.2083Z" fill="#98988B"/>
<path d="M171.06 12.2708H161.685C161.695 13.8958 162.07 15.125 162.81 15.9583C163.544 16.7917 164.622 17.2083 166.039 17.2083C167.523 17.2083 168.893 16.7083 170.143 15.7083L170.831 17.2083C170.273 17.7396 169.56 18.1562 168.685 18.4583C167.81 18.7604 166.914 18.9167 165.997 18.9167C163.997 18.9167 162.424 18.3281 161.289 17.1458C160.164 15.9688 159.602 14.349 159.602 12.2917C159.602 10.9896 159.852 9.83333 160.352 8.83333C160.862 7.82292 161.581 7.03646 162.497 6.47917C163.414 5.91146 164.456 5.625 165.622 5.625C167.315 5.625 168.643 6.18229 169.602 7.29167C170.57 8.40625 171.06 9.9375 171.06 11.8958V12.2708ZM165.643 7.22917C164.57 7.22917 163.706 7.55729 163.039 8.20833C162.372 8.84896 161.94 9.75 161.747 10.9167H169.206C169.107 9.70833 168.753 8.79167 168.143 8.16667C167.544 7.54167 166.711 7.22917 165.643 7.22917Z" fill="#98988B"/>
<path d="M185.451 5.9375V18.7292H183.409V16.4167C183.044 17.2083 182.482 17.8281 181.721 18.2708C180.971 18.7031 180.096 18.9167 179.096 18.9167C177.956 18.9167 176.956 18.6458 176.096 18.1042C175.247 17.5521 174.586 16.7812 174.117 15.7917C173.659 14.8073 173.43 13.6458 173.43 12.3125C173.43 10.9948 173.664 9.83333 174.138 8.83333C174.607 7.82292 175.268 7.03646 176.117 6.47917C176.977 5.91146 177.971 5.625 179.096 5.625C180.096 5.625 180.961 5.84896 181.701 6.29167C182.451 6.73958 183.018 7.35417 183.409 8.14583V5.9375H185.451ZM179.492 17.2083C180.753 17.2083 181.721 16.7812 182.388 15.9167C183.065 15.0573 183.409 13.8438 183.409 12.2708C183.409 10.6875 183.065 9.47396 182.388 8.625C181.721 7.78125 180.753 7.35417 179.492 7.35417C178.242 7.35417 177.263 7.79167 176.555 8.66667C175.857 9.54167 175.513 10.7604 175.513 12.3125C175.513 13.8854 175.857 15.0938 176.555 15.9375C177.247 16.7865 178.227 17.2083 179.492 17.2083Z" fill="#98988B"/>
<path d="M200.146 5.9375V18.7292H198.146V16.5208C197.74 17.3021 197.172 17.8958 196.438 18.3125C195.714 18.7188 194.896 18.9167 193.979 18.9167C192.464 18.9167 191.318 18.4948 190.542 17.6458C189.76 16.7865 189.375 15.5312 189.375 13.875V5.9375H191.417V13.8125C191.417 14.9688 191.651 15.8229 192.125 16.375C192.609 16.9167 193.333 17.1875 194.292 17.1875C195.427 17.1875 196.344 16.8229 197.042 16.0833C197.734 15.3333 198.083 14.3646 198.083 13.1667V5.9375H200.146Z" fill="#98988B"/>
<path d="M210.169 12.1458L215.44 18.7292H212.961L208.919 13.6875L204.919 18.7292H202.398L207.732 12.1458L202.711 5.9375H205.211L208.919 10.6458L212.628 5.9375H215.148L210.169 12.1458Z" fill="#98988B"/>
<path d="M230.586 18.9167C229.346 18.9167 228.263 18.6458 227.336 18.1042C226.419 17.5521 225.711 16.7812 225.211 15.7917C224.711 14.8073 224.461 13.6458 224.461 12.3125C224.461 10.9948 224.711 9.83333 225.211 8.83333C225.721 7.82292 226.445 7.03646 227.378 6.47917C228.32 5.91146 229.424 5.625 230.69 5.625C231.549 5.625 232.383 5.78125 233.19 6.08333C233.992 6.375 234.659 6.78646 235.19 7.3125L234.503 8.83333C233.862 8.32292 233.237 7.94792 232.628 7.70833C232.029 7.47396 231.419 7.35417 230.794 7.35417C229.487 7.35417 228.461 7.79167 227.711 8.66667C226.961 9.54167 226.586 10.7604 226.586 12.3125C226.586 13.8542 226.951 15.0573 227.69 15.9167C228.424 16.7812 229.461 17.2083 230.794 17.2083C231.419 17.2083 232.029 17.0938 232.628 16.8542C233.237 16.6198 233.862 16.2448 234.503 15.7292L235.19 17.25C234.648 17.7656 233.961 18.1771 233.128 18.4792C232.305 18.7708 231.461 18.9167 230.586 18.9167Z" fill="#98988B"/>
<path d="M243.089 18.9167C241.891 18.9167 240.839 18.6458 239.922 18.1042C239.005 17.5521 238.297 16.7708 237.797 15.7708C237.297 14.7708 237.047 13.6042 237.047 12.2708C237.047 10.9271 237.297 9.75 237.797 8.75C238.297 7.75 239.005 6.97917 239.922 6.4375C240.839 5.89583 241.891 5.625 243.089 5.625C244.297 5.625 245.359 5.89583 246.276 6.4375C247.193 6.97917 247.901 7.75 248.401 8.75C248.901 9.75 249.151 10.9271 249.151 12.2708C249.151 13.6042 248.901 14.7708 248.401 15.7708C247.901 16.7708 247.193 17.5521 246.276 18.1042C245.359 18.6458 244.297 18.9167 243.089 18.9167ZM243.089 17.2083C244.365 17.2083 245.339 16.7917 246.005 15.9583C246.682 15.1146 247.026 13.8854 247.026 12.2708C247.026 10.7188 246.677 9.51042 245.984 8.64583C245.286 7.78646 244.323 7.35417 243.089 7.35417C241.839 7.35417 240.865 7.78646 240.172 8.64583C239.474 9.51042 239.13 10.7188 239.13 12.2708C239.13 13.8854 239.469 15.1146 240.151 15.9583C240.844 16.7917 241.823 17.2083 243.089 17.2083Z" fill="#98988B"/>
<path d="M266.549 5.625C269.367 5.625 270.779 7.3125 270.779 10.6875V18.7292H268.737V10.7917C268.737 9.58333 268.529 8.70833 268.112 8.16667C267.695 7.625 267.018 7.35417 266.091 7.35417C264.992 7.35417 264.138 7.72396 263.529 8.45833C262.93 9.18229 262.633 10.1771 262.633 11.4375V18.7292H260.57V10.7917C260.57 9.61458 260.352 8.74479 259.924 8.1875C259.508 7.63542 258.826 7.35417 257.883 7.35417C256.799 7.35417 255.945 7.72396 255.32 8.45833C254.706 9.18229 254.404 10.1771 254.404 11.4375V18.7292H252.341V9.52083C252.341 8.20313 252.268 7.01042 252.133 5.9375H254.091L254.299 8.16667C254.659 7.36458 255.185 6.73958 255.883 6.29167C256.591 5.84896 257.409 5.625 258.341 5.625C259.367 5.625 260.201 5.83333 260.841 6.25C261.477 6.65625 261.951 7.28125 262.258 8.125C262.659 7.36458 263.237 6.76042 263.987 6.3125C264.737 5.85417 265.591 5.625 266.549 5.625Z" fill="#98988B"/>
<path d="M47.3516 33.1615V26.6406H48.3099V32.3698H51.4766V33.1615H47.3516Z" fill="#98988B"/>
<path d="M54.6953 33.1615V26.6406H58.9245V27.4115H55.6328V29.474H58.737V30.2448H55.6328V32.3906H58.9245V33.1615H54.6953Z" fill="#98988B"/>
<path d="M69.2526 33.2448C68.737 33.2448 68.2734 33.1719 67.8568 33.0365C67.4401 32.901 67.0755 32.6979 66.7734 32.4323L67.1068 31.7448C67.4245 31.9948 67.7526 32.1823 68.0859 32.3073C68.4297 32.4219 68.8203 32.474 69.2526 32.474C69.737 32.474 70.112 32.3854 70.3776 32.2031C70.6536 32.0104 70.7943 31.7448 70.7943 31.4115C70.7943 31.1354 70.6693 30.9271 70.4193 30.7865C70.1693 30.6354 69.7734 30.5052 69.2318 30.3906C68.7161 30.2813 68.2943 30.1563 67.9609 30.0156C67.6276 29.8646 67.362 29.6719 67.1693 29.4323C66.987 29.1823 66.8984 28.8698 66.8984 28.4948C66.8984 28.1198 66.9922 27.7865 67.1901 27.4948C67.3984 27.2031 67.6797 26.9844 68.0443 26.8281C68.4193 26.6615 68.8464 26.5781 69.3359 26.5781C69.7943 26.5781 70.2161 26.651 70.6068 26.7865C71.0078 26.9271 71.3411 27.1302 71.6068 27.3906L71.2734 28.0781C70.9818 27.8281 70.6745 27.651 70.3568 27.5365C70.0339 27.4115 69.6953 27.349 69.3359 27.349C68.862 27.349 68.4922 27.4479 68.2318 27.6406C67.9661 27.8385 67.8359 28.1094 67.8359 28.4531C67.8359 28.7448 67.9453 28.9688 68.1693 29.1198C68.4036 29.276 68.7839 29.4115 69.3151 29.5365C69.8568 29.651 70.2943 29.776 70.6276 29.9115C70.9609 30.0521 71.2214 30.2396 71.4193 30.474C71.6276 30.6979 71.7318 30.9948 71.7318 31.3698C71.7318 31.7448 71.6276 32.0729 71.4193 32.349C71.2214 32.6302 70.9401 32.849 70.5651 33.0156C70.1901 33.1667 69.7526 33.2448 69.2526 33.2448Z" fill="#C21010"/>
<path d="M77.8099 33.2448C76.9349 33.2448 76.2734 33.026 75.8307 32.5781C75.3828 32.1198 75.1641 31.4531 75.1641 30.5781V26.6406H76.0807V30.6406C76.0807 31.2396 76.2266 31.6979 76.5182 32.0156C76.8099 32.3229 77.237 32.474 77.8099 32.474C78.362 32.474 78.7891 32.3229 79.0807 32.0156C79.3724 31.6979 79.5182 31.2396 79.5182 30.6406V26.6406H80.4349V30.5781C80.4349 31.4531 80.2109 32.1198 79.7682 32.5781C79.3203 33.026 78.6693 33.2448 77.8099 33.2448Z" fill="#C21010"/>
<path d="M89.4245 33.1615H88.4245L87.612 30.9948C87.5286 30.7604 87.4036 30.599 87.237 30.5156C87.0703 30.4323 86.8464 30.3906 86.5703 30.3906H85.1328V33.1615H84.1953V26.6406H86.8828C87.5911 26.6406 88.1328 26.8021 88.5078 27.1198C88.8932 27.4427 89.0911 27.901 89.0911 28.4948C89.0911 28.9115 88.9766 29.276 88.7578 29.5781C88.5339 29.8698 88.2161 30.0781 87.7995 30.2031C88.1745 30.276 88.4453 30.5469 88.612 31.0156L89.4245 33.1615ZM86.7786 29.6198C87.2474 29.6198 87.5964 29.5313 87.8203 29.349C88.0547 29.1563 88.1745 28.8802 88.1745 28.5156C88.1745 28.1406 88.0547 27.8646 87.8203 27.6823C87.5964 27.5052 87.2474 27.4115 86.7786 27.4115H85.1328V29.6198H86.7786Z" fill="#C21010"/>
<path d="M92.7578 31.0781V30.3281H95.4245V31.0781H92.7578Z" fill="#C21010"/>
<path d="M104.591 26.6406H105.362V33.1615H104.508V28.6823L102.57 33.1615H101.924L99.9661 28.724L99.987 33.1615H99.1328V26.6406H99.8828L102.258 32.0365L104.591 26.6406Z" fill="#C21010"/>
<path d="M109.164 33.1615V26.6406H113.393V27.4115H110.102V29.474H113.206V30.2448H110.102V32.3906H113.393V33.1615H109.164Z" fill="#C21010"/>
<path d="M119.003 33.2448C118.487 33.2448 118.023 33.1719 117.607 33.0365C117.19 32.901 116.826 32.6979 116.523 32.4323L116.857 31.7448C117.174 31.9948 117.503 32.1823 117.836 32.3073C118.18 32.4219 118.57 32.474 119.003 32.474C119.487 32.474 119.862 32.3854 120.128 32.2031C120.404 32.0104 120.544 31.7448 120.544 31.4115C120.544 31.1354 120.419 30.9271 120.169 30.7865C119.919 30.6354 119.523 30.5052 118.982 30.3906C118.466 30.2813 118.044 30.1563 117.711 30.0156C117.378 29.8646 117.112 29.6719 116.919 29.4323C116.737 29.1823 116.648 28.8698 116.648 28.4948C116.648 28.1198 116.742 27.7865 116.94 27.4948C117.148 27.2031 117.43 26.9844 117.794 26.8281C118.169 26.6615 118.596 26.5781 119.086 26.5781C119.544 26.5781 119.966 26.651 120.357 26.7865C120.758 26.9271 121.091 27.1302 121.357 27.3906L121.023 28.0781C120.732 27.8281 120.424 27.651 120.107 27.5365C119.784 27.4115 119.445 27.349 119.086 27.349C118.612 27.349 118.242 27.4479 117.982 27.6406C117.716 27.8385 117.586 28.1094 117.586 28.4531C117.586 28.7448 117.695 28.9688 117.919 29.1198C118.154 29.276 118.534 29.4115 119.065 29.5365C119.607 29.651 120.044 29.776 120.378 29.9115C120.711 30.0521 120.971 30.2396 121.169 30.474C121.378 30.6979 121.482 30.9948 121.482 31.3698C121.482 31.7448 121.378 32.0729 121.169 32.349C120.971 32.6302 120.69 32.849 120.315 33.0156C119.94 33.1667 119.503 33.2448 119.003 33.2448Z" fill="#C21010"/>
<path d="M127.56 33.2448C126.685 33.2448 126.023 33.026 125.581 32.5781C125.133 32.1198 124.914 31.4531 124.914 30.5781V26.6406H125.831V30.6406C125.831 31.2396 125.977 31.6979 126.268 32.0156C126.56 32.3229 126.987 32.474 127.56 32.474C128.112 32.474 128.539 32.3229 128.831 32.0156C129.122 31.6979 129.268 31.2396 129.268 30.6406V26.6406H130.185V30.5781C130.185 31.4531 129.961 32.1198 129.518 32.5781C129.07 33.026 128.419 33.2448 127.56 33.2448Z" fill="#C21010"/>
<path d="M139.182 33.1615H138.182L137.37 30.9948C137.286 30.7604 137.161 30.599 136.995 30.5156C136.828 30.4323 136.604 30.3906 136.328 30.3906H134.891V33.1615H133.953V26.6406H136.641C137.349 26.6406 137.891 26.8021 138.266 27.1198C138.651 27.4427 138.849 27.901 138.849 28.4948C138.849 28.9115 138.734 29.276 138.516 29.5781C138.292 29.8698 137.974 30.0781 137.557 30.2031C137.932 30.276 138.203 30.5469 138.37 31.0156L139.182 33.1615ZM136.536 29.6198C137.005 29.6198 137.354 29.5313 137.578 29.349C137.812 29.1563 137.932 28.8802 137.932 28.5156C137.932 28.1406 137.812 27.8646 137.578 27.6823C137.354 27.5052 137.005 27.4115 136.536 27.4115H134.891V29.6198H136.536Z" fill="#C21010"/>
<path d="M142.617 33.1615V26.6406H146.846V27.4115H143.555V29.474H146.659V30.2448H143.555V32.3906H146.846V33.1615H142.617Z" fill="#C21010"/>
<path d="M155.023 26.6406H157.732C158.424 26.6406 158.961 26.8073 159.336 27.1406C159.711 27.474 159.898 27.9323 159.898 28.5156C159.898 29.0885 159.701 29.5365 159.315 29.8698C158.94 30.2031 158.409 30.3698 157.732 30.3698H155.982V33.1615H155.023V26.6406ZM157.628 29.6198C158.086 29.6198 158.424 29.526 158.648 29.3281C158.883 29.1354 159.003 28.8646 159.003 28.5156C159.003 28.1563 158.883 27.8854 158.648 27.7031C158.424 27.5104 158.086 27.4115 157.628 27.4115H155.982V29.6198H157.628Z" fill="#98988B"/>
<path d="M166.151 33.2448C165.526 33.2448 164.984 33.1094 164.526 32.8281C164.078 32.5521 163.734 32.1615 163.484 31.6615C163.234 31.1615 163.109 30.5781 163.109 29.9115C163.109 29.2344 163.234 28.6406 163.484 28.1406C163.734 27.6406 164.078 27.2604 164.526 26.9948C164.984 26.7188 165.526 26.5781 166.151 26.5781C166.776 26.5781 167.307 26.7188 167.755 26.9948C168.214 27.2604 168.557 27.6406 168.797 28.1406C169.047 28.6406 169.172 29.224 169.172 29.8906C169.172 30.5729 169.047 31.1615 168.797 31.6615C168.557 32.1615 168.214 32.5521 167.755 32.8281C167.297 33.1094 166.76 33.2448 166.151 33.2448ZM166.151 32.474C166.802 32.474 167.307 32.2552 167.672 31.8073C168.031 31.3646 168.214 30.724 168.214 29.8906C168.214 29.0729 168.031 28.4479 167.672 28.0156C167.307 27.5729 166.802 27.349 166.151 27.349C165.495 27.349 164.99 27.5729 164.63 28.0156C164.266 28.4479 164.089 29.0729 164.089 29.8906C164.089 30.724 164.266 31.3646 164.63 31.8073C164.99 32.2552 165.495 32.474 166.151 32.474Z" fill="#98988B"/>
<path d="M175.372 33.2448C174.497 33.2448 173.836 33.026 173.393 32.5781C172.945 32.1198 172.727 31.4531 172.727 30.5781V26.6406H173.643V30.6406C173.643 31.2396 173.789 31.6979 174.081 32.0156C174.372 32.3229 174.799 32.474 175.372 32.474C175.924 32.474 176.352 32.3229 176.643 32.0156C176.935 31.6979 177.081 31.2396 177.081 30.6406V26.6406H177.997V30.5781C177.997 31.4531 177.773 32.1198 177.331 32.5781C176.883 33.026 176.232 33.2448 175.372 33.2448Z" fill="#98988B"/>
<path d="M186.987 33.1615H185.987L185.174 30.9948C185.091 30.7604 184.966 30.599 184.799 30.5156C184.633 30.4323 184.409 30.3906 184.133 30.3906H182.695V33.1615H181.758V26.6406H184.445C185.154 26.6406 185.695 26.8021 186.07 27.1198C186.456 27.4427 186.654 27.901 186.654 28.4948C186.654 28.9115 186.539 29.276 186.32 29.5781C186.096 29.8698 185.779 30.0781 185.362 30.2031C185.737 30.276 186.008 30.5469 186.174 31.0156L186.987 33.1615ZM184.341 29.6198C184.81 29.6198 185.159 29.5313 185.383 29.349C185.617 29.1563 185.737 28.8802 185.737 28.5156C185.737 28.1406 185.617 27.8646 185.383 27.6823C185.159 27.5052 184.81 27.4115 184.341 27.4115H182.695V29.6198H184.341Z" fill="#98988B"/>
<path d="M196.716 33.1615V27.4323H194.508V26.6406H199.883V27.4323H197.674V33.1615H196.716Z" fill="#98988B"/>
<path d="M205.839 33.2448C205.214 33.2448 204.672 33.1094 204.214 32.8281C203.766 32.5521 203.422 32.1615 203.172 31.6615C202.922 31.1615 202.797 30.5781 202.797 29.9115C202.797 29.2344 202.922 28.6406 203.172 28.1406C203.422 27.6406 203.766 27.2604 204.214 26.9948C204.672 26.7188 205.214 26.5781 205.839 26.5781C206.464 26.5781 206.995 26.7188 207.443 26.9948C207.901 27.2604 208.245 27.6406 208.484 28.1406C208.734 28.6406 208.859 29.224 208.859 29.8906C208.859 30.5729 208.734 31.1615 208.484 31.6615C208.245 32.1615 207.901 32.5521 207.443 32.8281C206.984 33.1094 206.448 33.2448 205.839 33.2448ZM205.839 32.474C206.49 32.474 206.995 32.2552 207.359 31.8073C207.719 31.3646 207.901 30.724 207.901 29.8906C207.901 29.0729 207.719 28.4479 207.359 28.0156C206.995 27.5729 206.49 27.349 205.839 27.349C205.182 27.349 204.677 27.5729 204.318 28.0156C203.953 28.4479 203.776 29.0729 203.776 29.8906C203.776 30.724 203.953 31.3646 204.318 31.8073C204.677 32.2552 205.182 32.474 205.839 32.474Z" fill="#98988B"/>
<path d="M215.068 33.2448C214.193 33.2448 213.531 33.026 213.089 32.5781C212.641 32.1198 212.422 31.4531 212.422 30.5781V26.6406H213.339V30.6406C213.339 31.2396 213.484 31.6979 213.776 32.0156C214.068 32.3229 214.495 32.474 215.068 32.474C215.62 32.474 216.047 32.3229 216.339 32.0156C216.63 31.6979 216.776 31.2396 216.776 30.6406V26.6406H217.693V30.5781C217.693 31.4531 217.469 32.1198 217.026 32.5781C216.578 33.026 215.927 33.2448 215.068 33.2448Z" fill="#98988B"/>
<path d="M223.596 33.2448C223.081 33.2448 222.617 33.1719 222.201 33.0365C221.784 32.901 221.419 32.6979 221.117 32.4323L221.451 31.7448C221.768 31.9948 222.096 32.1823 222.43 32.3073C222.773 32.4219 223.164 32.474 223.596 32.474C224.081 32.474 224.456 32.3854 224.721 32.2031C224.997 32.0104 225.138 31.7448 225.138 31.4115C225.138 31.1354 225.013 30.9271 224.763 30.7865C224.513 30.6354 224.117 30.5052 223.576 30.3906C223.06 30.2813 222.638 30.1563 222.305 30.0156C221.971 29.8646 221.706 29.6719 221.513 29.4323C221.331 29.1823 221.242 28.8698 221.242 28.4948C221.242 28.1198 221.336 27.7865 221.534 27.4948C221.742 27.2031 222.023 26.9844 222.388 26.8281C222.763 26.6615 223.19 26.5781 223.68 26.5781C224.138 26.5781 224.56 26.651 224.951 26.7865C225.352 26.9271 225.685 27.1302 225.951 27.3906L225.617 28.0781C225.326 27.8281 225.018 27.651 224.701 27.5365C224.378 27.4115 224.039 27.349 223.68 27.349C223.206 27.349 222.836 27.4479 222.576 27.6406C222.31 27.8385 222.18 28.1094 222.18 28.4531C222.18 28.7448 222.289 28.9688 222.513 29.1198C222.747 29.276 223.128 29.4115 223.659 29.5365C224.201 29.651 224.638 29.776 224.971 29.9115C225.305 30.0521 225.565 30.2396 225.763 30.474C225.971 30.6979 226.076 30.9948 226.076 31.3698C226.076 31.7448 225.971 32.0729 225.763 32.349C225.565 32.6302 225.284 32.849 224.909 33.0156C224.534 33.1667 224.096 33.2448 223.596 33.2448Z" fill="#98988B"/>
</svg>
