<svg id="svg" viewBox="0 0 158 193" xmlns="http://www.w3.org/2000/svg">
<path d="M86.6484 185.358L86.6484 10.8066C86.6484 6.58573 83.2179 3.16406 78.9861 3.16406C74.7542 3.16406 71.3237 6.58573 71.3237 10.8066L71.3237 185.358C71.3237 189.579 74.7542 193 78.986 193C83.2179 193 86.6484 189.579 86.6484 185.358Z" />
<path d="M152.585 73.3784L84.4337 5.40407C81.4414 2.41948 76.5898 2.41948 73.5975 5.40407C70.6052 8.38865 70.6052 13.2276 73.5975 16.2122L141.749 84.1865C144.741 87.1711 149.592 87.1711 152.585 84.1865C155.577 81.2019 155.577 76.363 152.585 73.3784Z" />
<path d="M16.2511 84.2065L84.4022 16.2322C87.3945 13.2476 87.3945 8.40865 84.4022 5.42406C81.4098 2.43948 76.5583 2.43948 73.5659 5.42406L5.41483 73.3984C2.42249 76.3829 2.42249 81.2219 5.41483 84.2065C8.40718 87.1911 13.2587 87.1911 16.2511 84.2065Z" />
</svg>
