<svg id="svg" viewBox="0 0 239 239" xmlns="http://www.w3.org/2000/svg">
    <path d="M158.118 119.487C158.118 129.807 154.092 139.515 146.817 146.79C139.541 154.065 129.838 158.091 119.514 158.091C109.127 158.091 99.4898 154.074 92.1294 146.782C84.8585 139.507 80.8359 129.808 80.8359 119.487C80.8359 109.178 84.8539 99.4665 92.1371 92.1102C99.4963 84.8236 109.131 80.8091 119.514 80.8091C129.83 80.8091 139.534 84.8318 146.808 92.1019C154.093 99.4604 158.118 109.17 158.118 119.487Z" stroke="var(--white1)" fill="rgba(0, 0, 0, 0)" stroke-width="10"/>
    <path d="M119.477 47.5936C123.607 47.5936 126.945 44.2551 126.945 40.1248V7.46879C126.945 3.33852 123.607 0 119.477 0C115.346 0 112.008 3.33852 112.008 7.46879V40.1301C112.008 44.2552 115.346 47.5937 119.477 47.5937V47.5936Z" />
    <path d="M175.585 70.8337C177.496 70.8337 179.408 70.1045 180.866 68.6462L203.959 45.5422C206.881 42.6203 206.881 37.9015 203.959 34.9849C201.037 32.063 196.319 32.063 193.402 34.9849L170.309 58.0888C167.387 61.0107 167.387 65.7295 170.309 68.6462C171.762 70.1046 173.673 70.8337 175.585 70.8337H175.585Z" />
    <path d="M231.474 112.007H198.813C194.682 112.007 191.344 115.345 191.344 119.476C191.344 123.606 194.682 126.944 198.813 126.944H231.474C235.604 126.944 238.943 123.606 238.943 119.476C238.943 115.345 235.604 112.007 231.474 112.007Z" />
    <path d="M180.866 170.3C177.944 167.378 173.225 167.378 170.309 170.3C167.387 173.222 167.387 177.941 170.309 180.858L193.402 203.951C194.86 205.409 196.772 206.138 198.683 206.138C200.595 206.138 202.506 205.409 203.964 203.951C206.886 201.029 206.886 196.31 203.964 193.394L180.866 170.3Z" />
    <path d="M119.477 191.34C115.346 191.34 112.008 194.679 112.008 198.809V231.476C112.008 235.606 115.346 238.945 119.477 238.945C123.607 238.945 126.945 235.606 126.945 231.476V198.809C126.945 194.679 123.607 191.34 119.477 191.34Z" />
    <path d="M58.0894 170.3L34.9961 193.394C32.0742 196.315 32.0742 201.034 34.9961 203.951C36.4545 205.409 38.3658 206.138 40.2773 206.138C42.1887 206.138 44.1002 205.409 45.5585 203.951L68.6518 180.858C71.5737 177.936 71.5737 173.217 68.6518 170.3C65.7299 167.378 61.0111 167.378 58.0893 170.3H58.0894Z" />
    <path d="M47.5936 119.474C47.5936 115.343 44.2551 112.005 40.1248 112.005H7.46879C3.33852 112.005 0 115.343 0 119.474C0 123.604 3.33852 126.942 7.46879 126.942H40.1301C44.2552 126.942 47.5937 123.604 47.5937 119.474H47.5936Z" />
    <path d="M45.569 34.9936C42.6472 32.0718 37.9284 32.0718 35.0117 34.9936C32.0898 37.9155 32.0898 42.6343 35.0117 45.551L58.105 68.655C59.5634 70.1134 61.4748 70.8424 63.3862 70.8424C65.2977 70.8424 67.2092 70.1133 68.6674 68.655C71.5893 65.7331 71.5893 61.0143 68.6674 58.0977L45.569 34.9936Z" />
</svg>