<svg id="svg" viewBox="0 0 108 108"  xmlns="http://www.w3.org/2000/svg">
<path d="M2.12111 105.843C3.50447 107.224 5.37968 108 7.33483 108C9.28999 108 11.1652 107.224 12.5486 105.843L54.3567 64.049L96.1649 105.843C97.5897 106.886 99.3413 107.383 101.102 107.244C102.862 107.106 104.514 106.341 105.758 105.088C107.002 103.836 107.756 102.178 107.882 100.418C108.008 98.6571 107.498 96.9097 106.445 95.4929L64.6366 53.6989L106.445 11.9048C107.549 10.4859 108.097 8.71247 107.986 6.91799C107.874 5.12351 107.111 3.43155 105.839 2.16022C104.567 0.88888 102.875 0.12572 101.08 0.0142079C99.2846 -0.0973043 97.5106 0.450515 96.0911 1.55467L54.283 43.3487L12.4748 1.55467C11.0553 0.450515 9.28133 -0.0973043 7.48624 0.0142079C5.69115 0.12572 3.99863 0.88888 2.72686 2.16022C1.45509 3.43155 0.691674 5.12351 0.580124 6.91799C0.468574 8.71247 1.01658 10.4859 2.12111 11.9048L43.9293 53.6989L2.12111 95.4929C0.761872 96.8726 0 98.7315 0 100.668C0 102.604 0.761872 104.463 2.12111 105.843Z"/>
</svg>
