<svg id="svg" viewBox="0 0 53 55" xmlns="http://www.w3.org/2000/svg">
<path d="M29.4167 30.8448V2.91379C29.4167 1.30456 28.1108 0 26.5 0C24.8892 0 23.5833 1.30456 23.5833 2.91379V30.8448L13.9791 21.25C12.84 20.1121 10.9933 20.1121 9.85431 21.25C8.71523 22.3879 8.71523 24.2328 9.85431 25.3707L26.5 42L43.146 25.3707C44.2847 24.2328 44.2847 22.3879 43.146 21.25C42.0068 20.1121 40.1599 20.1121 39.0207 21.25L29.4167 30.8448Z" />
<path d="M2.94444 38C4.5706 38 5.88889 39.2685 5.88889 40.8333V45.3667C5.88889 47.5574 7.73447 49.3333 10.0111 49.3333H42.9889C45.2655 49.3333 47.1111 47.5574 47.1111 45.3667V40.8333C47.1111 39.2685 48.4296 38 50.0556 38C51.6815 38 53 39.2685 53 40.8333V45.3667C53 50.6871 48.518 55 42.9889 55H10.0111C4.48215 55 0 50.6871 0 45.3667V40.8333C0 39.2685 1.31829 38 2.94444 38Z"/>
</svg>
