 <svg id="svg" viewBox="0 0 327 327" xmlns="http://www.w3.org/2000/svg">
    <path fill-rule="evenodd" clip-rule="evenodd" d="M126.119 0.00944294C123.118 0.0949799 120.469 1.98712 119.398 4.79158L0.49501 316.914C-1.3609 321.779 2.23167 326.994 7.43914 326.994H126.349C130.452 326.994 133.78 323.666 133.78 319.563V7.42716C133.777 3.23597 130.312 -0.123264 126.123 0.00347183L126.119 0.00944294ZM163.393 0.00944294C159.289 0.0664656 156.01 3.44638 156.07 7.54925V319.46C155.933 329.504 171.068 329.504 170.933 319.46V7.54925C170.992 3.36065 167.581 -0.0529298 163.393 0.00944294V0.00944294ZM200.71 0.00944294C196.588 -0.0320283 193.231 3.31162 193.227 7.43313V319.569C193.227 323.672 196.555 327 200.658 327H319.561C324.768 327 328.361 321.785 326.505 316.92L207.602 4.79755C206.511 1.93344 203.771 0.0361165 200.707 0.0154141L200.71 0.00944294ZM208.089 47.8208L308.777 312.135H208.089V47.8208Z" />
</svg>