<svg id="svg" viewBox="0 0 327 327" xmlns="http://www.w3.org/2000/svg">
    <path fill-rule="evenodd" clip-rule="evenodd" d="M0.00943743 200.881C0.0949745 203.882 1.98712 206.531 4.79157 207.602L316.914 326.505C321.779 328.361 326.994 324.768 326.994 319.561L326.994 200.651C326.994 196.548 323.666 193.22 319.563 193.22L7.42715 193.22C3.23597 193.223 -0.12327 196.688 0.00346631 200.877L0.00943743 200.881ZM0.0094358 163.607C0.0664586 167.711 3.44637 170.99 7.54924 170.93L319.46 170.93C329.504 171.067 329.504 155.932 319.46 156.067L7.54924 156.067C3.36064 156.008 -0.0529372 159.419 0.0094358 163.607V163.607ZM0.00943416 126.29C-0.0320369 130.412 3.31161 133.769 7.43312 133.773L319.569 133.773C323.672 133.773 327 130.445 327 126.342L327 7.4391C327 2.2317 321.785 -1.36098 316.92 0.49499L4.79754 119.398C1.93343 120.489 0.0361076 123.229 0.0154053 126.293L0.00943416 126.29ZM47.8208 118.911L312.135 18.2226L312.135 118.911L47.8208 118.911Z" />
</svg>