<svg id="svg" viewBox="0 0 24 24" xmlns="http://www.w3.org/2000/svg">
<path d="M1 0C0.734792 2.65434e-05 0.480453 0.105392 0.292922 0.292922C0.105392 0.480453 2.65434e-05 0.734791 0 1V23C2.65434e-05 23.2652 0.105392 23.5195 0.292922 23.7071C0.480453 23.8946 0.734792 24 1 24H23C23.2652 24 23.5195 23.8946 23.7071 23.7071C23.8946 23.5195 24 23.2652 24 23V1C24 0.734791 23.8946 0.480453 23.7071 0.292922C23.5195 0.105392 23.2652 2.65434e-05 23 0H1ZM2 2H4.24218L2 4.24219V2ZM7.07031 2H9.89843L2 9.89844V7.07032L7.07031 2ZM12.7266 2H15.5566L2 15.5566V12.7266L12.7266 2ZM18.3848 2H21.2129L2 21.2129V18.3848L18.3848 2Z" />
</svg>
