<svg id="svg" viewBox="0 0 146 146" xmlns="http://www.w3.org/2000/svg">
    <path d="M138.44 2.6326C135.935 0.974635 132.947 0 129.727 0H15.82C7.09368 0 0 7.10019 0 15.82V129.727C0 132.947 0.974662 135.935 2.6326 138.44L138.44 2.6326ZM28.477 31.6408H60.1186C61.8656 31.6408 63.2831 33.0583 63.2831 34.8053C63.282 36.5522 61.8645 37.9697 60.1175 37.9697H28.4786C26.7316 37.9697 25.3141 36.5522 25.3141 34.8053C25.3141 33.0583 26.7316 31.6408 28.4786 31.6408H28.477Z"/>
    <path d="M7.10938 142.913C9.61486 144.571 12.6024 145.545 15.823 145.545H129.73C138.456 145.545 145.55 138.445 145.55 129.725V15.8186C145.55 12.598 144.575 9.61039 142.917 7.10498L7.10938 142.913ZM123.403 107.577H107.583L107.582 123.398C107.582 125.145 106.164 126.563 104.417 126.563C102.67 126.563 101.253 125.145 101.253 123.398V107.578L85.4338 107.577C83.6869 107.577 82.2694 106.16 82.2694 104.413C82.2694 102.666 83.6869 101.248 85.4338 101.248H101.254V85.4294C101.254 83.6825 102.671 82.265 104.418 82.265C106.165 82.265 107.583 83.6825 107.583 85.4294V101.249H123.403C125.15 101.249 126.567 102.667 126.567 104.414C126.566 106.16 125.149 107.577 123.403 107.577L123.403 107.577Z"/>
</svg>