<svg id="svg" viewBox="0 0 189 259" xmlns="http://www.w3.org/2000/svg">
<path d="M118.936 129.5C118.942 105.747 125.482 82.4534 137.84 62.1702C150.198 41.8871 167.897 25.3964 189 14.504C171.59 5.48587 152.359 0.540796 132.759 0.0419126C113.16 -0.456971 93.7025 3.50336 75.8562 11.6241C58.0099 19.7448 42.2406 31.8138 29.7382 46.9204C17.2357 62.027 8.32667 79.7767 3.68327 98.83C-0.960121 117.883 -1.21658 137.743 2.93324 156.91C7.08305 176.077 15.5308 194.051 27.6389 209.475C39.7471 224.9 55.1995 237.372 72.8301 245.951C90.4607 254.53 109.809 258.992 129.415 259C150.124 259.026 170.534 254.05 188.909 244.496C167.823 233.591 150.142 217.095 137.801 196.813C125.459 176.531 118.933 153.244 118.936 129.5Z" />
</svg>
