<svg id="svg" viewBox="0 0 107 133" xmlns="http://www.w3.org/2000/svg">
<path fill-rule="evenodd" clip-rule="evenodd" d="M4.22953 7.00877C8.77201 2.16043 18.8809 -0.0193869 25.9362 0.000129853C34.6344 0.0227952 37.3163 6.27003 40.8166 13.8805C46.1651 25.5036 45.0342 25.9519 37.0862 34.0042C34.7644 36.3542 32.4642 38.7671 30.8409 40.7378C23.6049 47.4209 60.6899 100.296 69.4552 95.7936C71.8648 94.9457 74.9223 93.6126 77.9284 92.2384C88.2251 87.5353 89.034 86.6286 98.1448 95.6206C104.114 101.506 109.076 106.161 106.122 114.328C103.726 120.953 98.2169 129.69 92.1008 132.295C54.4533 142.511 -18.2607 38.8333 4.23111 7.00772L4.22953 7.00877Z" />
</svg>
