<svg id="svg" viewBox="0 0 51 51" xmlns="http://www.w3.org/2000/svg">
<path d="M23.5908 25.1377V14.0991C23.5908 13.7013 23.7488 13.3197 24.0302 13.0384C24.3115 12.7571 24.693 12.5991 25.0908 12.5991C25.4886 12.5991 25.8702 12.7571 26.1515 13.0384C26.4328 13.3197 26.5908 13.7013 26.5908 14.0991V25.1377C26.5908 25.5355 26.4328 25.9171 26.1515 26.1984C25.8702 26.4797 25.4886 26.6377 25.0908 26.6377C24.693 26.6377 24.3115 26.4797 24.0302 26.1984C23.7488 25.9171 23.5908 25.5355 23.5908 25.1377ZM50.1816 25.0908C50.1816 30.0533 48.7101 34.9043 45.953 39.0305C43.196 43.1567 39.2774 46.3726 34.6926 48.2717C30.1079 50.1707 25.063 50.6676 20.1958 49.6995C15.3287 48.7314 10.8579 46.3417 7.34894 42.8327C3.83993 39.3237 1.45026 34.8529 0.482124 29.9858C-0.48601 25.1186 0.0108714 20.0737 1.90993 15.489C3.809 10.9042 7.02495 6.98557 11.1511 4.22856C15.2773 1.47155 20.1283 0 25.0908 0C31.743 0.00756961 38.1205 2.65349 42.8243 7.35729C47.5281 12.0611 50.174 18.4386 50.1816 25.0908ZM47.1816 25.0908C47.1816 20.7217 45.886 16.4506 43.4586 12.8178C41.0313 9.18499 37.5812 6.35356 33.5446 4.68156C29.508 3.00956 25.0663 2.57209 20.7811 3.42447C16.4959 4.27685 12.5597 6.38079 9.47026 9.47025C6.3808 12.5597 4.27686 16.4959 3.42448 20.7811C2.5721 25.0663 3.00957 29.508 4.68157 33.5446C6.35357 37.5812 9.18501 41.0313 12.8178 43.4586C16.4506 45.886 20.7217 47.1816 25.0908 47.1816C30.9477 47.1751 36.5628 44.8456 40.7042 40.7042C44.8456 36.5627 47.1751 30.9476 47.1816 25.0908ZM33.2016 15.143C32.8918 14.8933 32.4956 14.7769 32.1 14.8194C31.7044 14.8619 31.3419 15.0598 31.0922 15.3696C30.8425 15.6794 30.7261 16.0756 30.7686 16.4712C30.8111 16.8668 31.009 17.2293 31.3188 17.479C32.4651 18.3994 33.3895 19.566 34.0234 20.8923C34.6574 22.2187 34.9846 23.6707 34.9808 25.1408C34.9808 27.7638 33.9388 30.2794 32.0841 32.1341C30.2294 33.9888 27.7138 35.0308 25.0908 35.0308C22.4678 35.0308 19.9523 33.9888 18.0975 32.1341C16.2428 30.2794 15.2008 27.7638 15.2008 25.1408C15.197 23.6708 15.5242 22.2188 16.1581 20.8925C16.7919 19.5662 17.7162 18.3996 18.8624 17.4792C19.1722 17.2295 19.3701 16.867 19.4126 16.4714C19.4551 16.0758 19.3387 15.6796 19.089 15.3698C18.8393 15.06 18.4768 14.8621 18.0812 14.8196C17.6857 14.7771 17.2894 14.8935 16.9796 15.1432C14.9088 16.8199 13.4084 19.0972 12.685 21.6617C11.9616 24.2261 12.0508 26.9518 12.9401 29.4635C13.8295 31.9753 15.4754 34.1497 17.6513 35.6875C19.8273 37.2254 22.4264 38.0511 25.0909 38.0511C27.7555 38.0511 30.3545 37.2254 32.5305 35.6875C34.7064 34.1497 36.3523 31.9753 37.2417 29.4635C38.1311 26.9518 38.2202 24.2261 37.4968 21.6617C36.7734 19.0972 35.2725 16.8197 33.2016 15.143Z"/>
</svg>
