<svg id="svg" viewBox="0 0 586 586" xmlns="http://www.w3.org/2000/svg">
    <path d="M292.721 0C215.085 0 140.628 30.844 85.7347 85.7347C30.844 140.631 0 215.084 0 292.721C0 370.359 30.844 444.815 85.7347 499.708C140.631 554.599 215.084 585.443 292.721 585.443C370.359 585.443 444.815 554.599 499.708 499.708C554.599 444.812 585.443 370.359 585.443 292.721C585.333 215.123 554.464 140.721 499.588 85.8547C444.719 30.98 370.323 0.109333 292.721 0ZM275.221 164.507C275.221 154.845 283.055 147.007 292.721 147.007C302.388 147.007 310.221 154.845 310.221 164.507V293.309C310.221 302.976 302.388 310.809 292.721 310.809C283.055 310.809 275.221 302.976 275.221 293.309V164.507ZM292.721 443.573C251.033 443.641 211.195 426.376 182.743 395.907C154.289 365.437 139.784 324.516 142.696 282.933C145.613 241.345 165.68 202.845 198.108 176.641C205.644 170.584 216.665 171.787 222.723 179.324C228.78 186.865 227.577 197.886 220.04 203.944C192.942 225.678 177.223 258.574 177.338 293.308C177.338 334.532 199.332 372.62 235.031 393.234C270.734 413.844 314.714 413.844 350.416 393.234C386.114 372.62 408.11 334.532 408.11 293.308C408.224 258.573 392.506 225.677 365.407 203.944C357.871 197.886 356.667 186.865 362.725 179.324C368.782 171.787 379.803 170.584 387.339 176.641C419.766 202.844 439.834 241.344 442.751 282.933C445.663 324.517 431.158 365.439 402.705 395.907C374.252 426.376 334.413 443.641 292.726 443.573H292.721Z"/>
</svg>