<svg id="svg" viewBox="0 0 381 380" xmlns="http://www.w3.org/2000/svg">
    <path d="M4.81104 190.025C2.00274 190.424 0 193.225 0 196.023C3.20829 298.01 87.4162 380 190.471 380C299.942 380 388.16 287.612 380.541 176.825C374.124 82.837 297.536 6.84641 203.303 0.447204C138.34 -3.95239 79.7973 24.4456 42.1041 70.8399L14.435 48.4434C10.4239 45.2434 4.81047 48.0444 4.81047 52.843V140.832C4.81047 144.431 8.41875 147.232 12.0269 146.431L22.0545 144.431L37.2929 141.231L43.7094 140.031L98.2414 128.434C103.052 127.235 104.658 121.236 100.647 118.036L69.3696 92.8386C101.046 53.6442 151.974 30.045 207.311 36.0456C278.687 43.6454 336.43 101.238 344.049 172.429C354.876 265.617 281.894 344.807 190.469 344.807C107.464 344.807 39.6962 279.615 35.2853 198.025V190.426C35.2853 186.827 31.677 184.026 28.0689 184.827L4.81104 190.025Z" />
</svg>