<svg id="svg" viewBox="0 0 278 278" xmlns="http://www.w3.org/2000/svg">
<path d="M139 0C111.508 0 84.6342 8.1522 61.7758 23.4257C38.9174 38.6992 21.1014 60.4081 10.5808 85.807C0.0602267 111.206 -2.69244 139.154 2.67091 166.118C8.03425 193.081 21.2727 217.848 40.7122 237.288C60.1517 256.727 84.9191 269.966 111.882 275.329C138.846 280.692 166.794 277.94 192.193 267.419C217.592 256.899 239.301 239.083 254.574 216.224C269.848 193.366 278 166.492 278 139C278 102.135 263.355 66.7797 237.288 40.7121C211.22 14.6446 175.865 0 139 0ZM198.935 223.31L139 188.602L79.0652 223.31L93.5536 155.583L42.0234 109.307L110.913 102.158L139 38.8494L167.088 102.158L235.977 109.307L184.447 155.583L198.935 223.31Z" />
</svg>
