<svg id="svg" viewBox="0 0 225 215" xmlns="http://www.w3.org/2000/svg">
<path fill-rule="evenodd" clip-rule="evenodd" d="M105.021 4.70918C106.403 1.83223 109.307 0 112.5 0C115.693 0 118.597 1.83223 119.979 4.70918L148.438 64.0642C149.22 65.6929 150.768 66.818 152.558 67.0591L217.806 75.7863C220.967 76.2095 223.608 78.4061 224.594 81.4438C225.579 84.4761 224.738 87.8084 222.429 90.0103L174.769 135.42C173.462 136.663 172.873 138.484 173.194 140.263L185.061 205.013C185.634 208.153 184.359 211.34 181.777 213.215C179.195 215.09 175.766 215.321 172.959 213.805L115.045 182.512C113.459 181.655 111.541 181.655 109.955 182.512L52.0413 213.805C49.234 215.321 45.8052 215.09 43.223 213.215C40.6407 211.34 39.3656 208.153 39.9388 205.013L51.8055 140.263C52.127 138.484 51.5378 136.663 50.2306 135.42L2.57065 90.0103C0.261591 87.8084 -0.579482 84.4761 0.406286 81.4438C1.39206 78.4061 4.03326 76.2095 7.19415 75.7863L72.4425 67.0591C74.2319 66.818 75.7801 65.6929 76.5623 64.0642L105.021 4.70918Z" />
</svg>
