<svg id="svg" viewBox="0 0 370 370" xmlns="http://www.w3.org/2000/svg">
<path d="M258.497 111.439C238.89 91.8329 212.808 81.0312 184.988 81.0312C157.168 81.0312 131.087 91.8329 111.48 111.439C91.8728 131.044 81.0703 157.123 81.0703 184.941C81.0703 212.759 91.8728 238.838 111.48 258.444C131.087 278.05 157.168 288.851 184.988 288.851C212.808 288.851 238.89 278.05 258.497 258.444C278.104 238.838 288.906 212.759 288.906 184.941C288.906 157.123 278.104 131.044 258.497 111.439Z" />
<path d="M360.015 174.961H314.215C308.703 174.961 304.227 179.437 304.227 184.949C304.227 190.461 308.703 194.937 314.215 194.937H360.015C365.527 194.937 370.003 190.461 370.003 184.949C370.003 179.437 365.527 174.961 360.015 174.961Z" />
<path d="M65.7396 184.949C65.7396 179.437 61.2632 174.961 55.751 174.961H9.98856C4.47636 174.961 0 179.437 0 184.949C0 190.461 4.47636 194.937 9.98856 194.937H55.751C61.2632 194.937 65.7396 190.461 65.7396 184.949Z" />
<path d="M184.989 304.227C179.476 304.227 175 308.703 175 314.214V360.01C175 365.522 179.476 369.998 184.989 369.998C190.501 369.998 194.977 365.522 194.977 360.01V314.214C194.977 308.703 190.501 304.227 184.989 304.227Z" />
<path d="M184.989 65.6974C190.501 65.6974 194.977 61.2214 194.977 55.7096V9.95079C194.977 4.43902 190.501 0 184.989 0C179.476 0 175 4.47601 175 9.98778V55.7466C175 61.2584 179.476 65.7344 184.989 65.7344V65.6974Z" />
<path d="M283.481 269.343C279.597 265.459 273.271 265.459 269.349 269.343C265.428 273.227 265.465 279.553 269.349 283.474L301.682 315.805C303.643 317.765 306.196 318.727 308.748 318.727C311.301 318.727 313.854 317.765 315.814 315.805C319.699 311.92 319.699 305.595 315.814 301.674L283.481 269.343Z" />
<path d="M86.534 100.586C88.4947 102.546 91.0474 103.508 93.6 103.508C96.1526 103.508 98.7053 102.546 100.666 100.586C104.55 96.7016 104.55 90.376 100.666 86.4549L68.3326 54.124C64.4482 50.2399 58.1221 50.2399 54.2007 54.124C50.2792 58.0082 50.3162 64.3338 54.2007 68.2549L86.534 100.586Z" />
<path d="M86.5201 269.325L54.1868 301.656C50.3023 305.54 50.3023 311.866 54.1868 315.787C56.1475 317.748 58.7001 318.709 61.2527 318.709C63.8054 318.709 66.358 317.748 68.3187 315.787L100.652 283.456C104.537 279.572 104.537 273.247 100.652 269.325C96.7677 265.404 90.4416 265.441 86.5201 269.325Z" />
<path d="M276.456 103.491C279.009 103.491 281.561 102.529 283.522 100.568L315.855 68.2375C319.74 64.3534 319.74 58.0278 315.855 54.1067C311.971 50.1855 305.645 50.2225 301.723 54.1067L269.39 86.4375C265.505 90.3216 265.505 96.6472 269.39 100.568C271.351 102.529 273.903 103.491 276.456 103.491Z" />
</svg>
