<svg id="svg" viewBox="0 0 53 55" xmlns="http://www.w3.org/2000/svg">
<path d="M23.5833 11.1552L23.5833 39.0862C23.5833 40.6954 24.8892 42 26.5 42C28.1108 42 29.4167 40.6954 29.4167 39.0862L29.4167 11.1552L39.0209 20.75C40.16 21.8879 42.0067 21.8879 43.1457 20.75C44.2848 19.6121 44.2848 17.7672 43.1457 16.6293L26.5 -7.83266e-07L9.854 16.6293C8.71533 17.7672 8.71533 19.6121 9.854 20.75C10.9933 21.8879 12.8401 21.8879 13.9793 20.75L23.5833 11.1552Z" />
<path d="M2.94444 38C4.5706 38 5.88889 39.2685 5.88889 40.8333V45.3667C5.88889 47.5574 7.73447 49.3333 10.0111 49.3333H42.9889C45.2655 49.3333 47.1111 47.5574 47.1111 45.3667V40.8333C47.1111 39.2685 48.4296 38 50.0556 38C51.6815 38 53 39.2685 53 40.8333V45.3667C53 50.6871 48.518 55 42.9889 55H10.0111C4.48215 55 0 50.6871 0 45.3667V40.8333C0 39.2685 1.31829 38 2.94444 38Z"/>
</svg>
