<svg id="svg" viewBox="0 0 257 257" xmlns="http://www.w3.org/2000/svg">
    <path d="M104.443 104.637C104.443 108.873 106.126 112.937 109.122 115.933C112.118 118.929 116.182 120.611 120.418 120.611H136.395V136.588C136.395 142.295 139.439 147.568 144.383 150.423C149.326 153.277 155.416 153.277 160.358 150.423C165.302 147.568 168.347 142.295 168.347 136.588V120.611H184.323C190.031 120.611 195.304 117.567 198.159 112.623C201.011 107.681 201.011 101.591 198.159 96.6483C195.304 91.7045 190.031 88.6601 184.323 88.6601H168.347V72.6836C168.347 66.9761 165.302 61.7033 160.358 58.8486C155.416 55.9958 149.326 55.9958 144.383 58.8486C139.439 61.7032 136.395 66.9761 136.395 72.6836V88.6601H120.418C116.182 88.6601 112.118 90.3428 109.122 93.3385C106.126 96.3343 104.443 100.398 104.443 104.636V104.637ZM7.62779 215.505C2.87118 219.937 0.118686 226.112 0.00362225 232.614C-0.109673 239.115 2.42181 245.383 7.01871 249.981C11.6174 254.578 17.8856 257.11 24.3863 256.996C30.8888 256.881 37.0643 254.129 41.4957 249.372L97.9722 192.925C119.715 206.357 145.633 211.335 170.805 206.909C195.977 202.485 218.647 188.968 234.504 168.925C250.362 148.884 258.305 123.714 256.825 98.2003C255.343 72.687 244.539 48.6048 226.467 30.5325C208.395 12.4611 184.313 1.65761 158.798 0.175121C133.284 -1.30514 108.113 6.63856 88.0714 22.4957C68.0293 38.3548 54.5117 61.023 50.0874 86.1935C45.6615 111.365 50.6391 137.282 64.071 159.025L7.62779 215.505ZM80.4748 104.637C80.4748 85.5697 88.0491 67.2834 101.531 53.8002C115.013 40.3185 133.3 32.7443 152.364 32.7443C171.431 32.7443 189.718 40.3185 203.201 53.8002C216.683 67.2819 224.257 85.5687 224.257 104.637C224.257 123.702 216.683 141.989 203.201 155.468C189.719 168.95 171.432 176.524 152.364 176.524C133.298 176.524 115.011 168.95 101.531 155.468C88.051 141.987 80.4748 123.7 80.4748 104.637V104.637Z" />
</svg>