<svg id="svg" viewBox="0 0 268 268" xmlns="http://www.w3.org/2000/svg">
    <path d="M150.761 109.115C150.761 113.533 149.005 117.771 145.881 120.895C142.757 124.019 138.519 125.774 134.101 125.774H84.1221C78.1702 125.774 72.6715 122.599 69.6946 117.443C66.7178 112.289 66.7178 105.939 69.6946 100.785C72.6715 95.6296 78.1702 92.4549 84.1221 92.4549H134.101C138.519 92.4549 142.757 94.2096 145.881 97.3336C149.005 100.458 150.761 104.695 150.761 109.115V109.115ZM260.046 224.729C265.006 229.35 267.876 235.79 267.996 242.57C268.114 249.349 265.475 255.885 260.681 260.681C255.885 265.475 249.349 268.114 242.57 267.996C235.789 267.876 229.349 265.006 224.728 260.046L165.834 201.183C143.161 215.19 116.133 220.38 89.8844 215.765C63.6351 211.151 39.9948 197.056 23.4591 176.156C6.92241 155.256 -1.36129 129.009 0.182698 102.403C1.72828 75.7981 12.9948 50.6852 31.84 31.8393C50.6852 12.9944 75.7976 1.72856 102.405 0.182617C129.011 -1.361 155.26 6.9227 176.159 23.4586C197.059 39.9964 211.155 63.6348 215.769 89.8827C220.384 116.132 215.193 143.158 201.187 165.831L260.046 224.729ZM184.081 109.115C184.081 89.2322 176.182 70.1632 162.123 56.1029C148.064 42.0441 128.994 34.1458 109.115 34.1458C89.2314 34.1458 70.1621 42.0441 56.1015 56.1029C42.0425 70.1617 34.1441 89.2312 34.1441 109.115C34.1441 128.996 42.0425 148.066 56.1015 162.123C70.1606 176.182 89.2304 184.08 109.115 184.08C128.996 184.08 148.066 176.182 162.123 162.123C176.18 148.064 184.081 128.994 184.081 109.115V109.115Z" />
</svg>